<svg width="107" height="143" viewBox="0 0 107 143" fill="none" xmlns="http://www.w3.org/2000/svg">
<path d="M95.5289 69.1787C100.121 63.2856 102.61 56.0264 102.601 48.5556V46.7603C102.585 38.1925 99.3059 29.9527 93.4301 23.7172C87.5543 17.4817 79.5235 13.7192 70.9718 13.1951V0.471619H48.5222V13.1015H39.3269V0.471619H16.8773V13.1015H0.50061V35.5355H11.6317V109.254H0.50061V131.688H16.8773V142.007H39.3269V131.688H48.5222V142.007H70.9718V131.688H71.8304C81.0971 131.675 89.9807 127.989 96.5333 121.436C103.086 114.884 106.773 106 106.785 96.7333V94.7974C106.783 89.9809 105.782 85.2171 103.844 80.8074C101.907 76.3977 99.0753 72.4379 95.5289 69.1787ZM34.0813 35.5355H68.9266C71.9024 35.5396 74.755 36.7235 76.8592 38.8277C78.9634 40.9319 80.1473 43.7845 80.1514 46.7603V48.5556C80.1514 51.5326 78.9688 54.3877 76.8637 56.4928C74.7587 58.5978 71.9036 59.7804 68.9266 59.7804H34.0813V35.5355ZM84.3354 96.7333C84.3354 100.046 83.0195 103.222 80.6773 105.565C78.3351 107.907 75.1584 109.223 71.846 109.223H34.0813V82.2769H71.8304C75.1428 82.2769 78.3195 83.5927 80.6617 85.9349C83.0039 88.2771 84.3197 91.4538 84.3197 94.7662L84.3354 96.7333Z" fill="url(#paint0_radial_236_6)" style="mix-blend-mode:screen"/>
<defs>
<radialGradient id="paint0_radial_236_6" cx="0" cy="0" r="1" gradientUnits="userSpaceOnUse" gradientTransform="translate(18 134.5) rotate(-65.3231) scale(142.515 142.515)">
<stop stop-color="#2C66B8"/>
<stop offset="1" stop-color="#592CB8"/>
</radialGradient>
</defs>
</svg>
