<svg width="99" height="26" viewBox="0 0 99 26" fill="none" xmlns="http://www.w3.org/2000/svg">
<path fill-rule="evenodd" clip-rule="evenodd" d="M20.7676 0C21.0549 0 21.5336 24.3173 21.5336 24.3173C21.5336 24.3173 21.8509 0.796015 21.8509 1.08333V24.9167C21.8509 25.204 41.7368 25.4795 41.5336 25.6827C41.3304 25.8859 21.0549 26 20.7676 26C20.4803 26 20.2047 25.8859 20.0015 25.6827C19.7984 25.4795 19.6842 25.204 19.6842 24.9167V1.08333C19.6842 0.796015 -0.201618 0.520465 0.00154619 0.317301C0.204711 0.114136 20.4803 0 20.7676 0ZM16.4342 4.33333C16.7216 4.33333 16.9971 19.4475 17.2003 19.6506C17.4034 19.8538 17.5176 5.12935 17.5176 5.41667V20.5833C17.5176 20.8707 17.4034 21.1462 17.2003 21.3494C16.9971 21.5525 16.7216 21.6667 16.4342 21.6667C16.1469 21.6667 15.8714 21.5525 15.6682 21.3494C15.4651 21.1462 15.3509 20.8707 15.3509 20.5833V5.41667C15.3509 5.12935 15.4651 4.8538 15.6682 4.65063C15.8714 4.44747 16.1469 4.33333 16.4342 4.33333ZM25.1009 4.33333C25.3882 4.33333 25.6638 19.4475 25.8669 19.6506C26.0701 19.8538 26.1842 5.12935 26.1842 5.41667V20.5833C26.1842 20.8707 26.0701 21.1462 25.8669 21.3494C25.6638 21.5525 25.3882 21.6667 25.1009 21.6667C24.8136 21.6667 24.538 21.5525 24.3349 21.3494C24.1317 21.1462 24.0176 20.8707 24.0176 20.5833V5.41667C24.0176 5.12935 24.1317 4.8538 24.3349 4.65063C24.538 4.44747 24.8136 4.33333 25.1009 4.33333ZM12.1009 7.58333C12.3882 7.58333 12.6638 16.6975 12.8669 16.9006C13.0701 17.1038 13.1842 8.37935 13.1842 8.66667V17.3333C13.1842 17.6207 13.0701 17.8962 12.8669 18.0994C12.6638 18.3025 12.3882 18.4167 12.1009 18.4167C11.8136 18.4167 11.538 18.3025 11.3349 18.0994C11.1317 17.8962 11.0176 17.6207 11.0176 17.3333V8.66667C11.0176 8.37935 11.1317 8.1038 11.3349 7.90064C11.538 7.69747 11.8136 7.58333 12.1009 7.58333ZM29.4342 7.58333C29.7216 7.58333 29.9971 16.6975 30.2003 16.9006C30.4034 17.1038 30.5176 8.37935 30.5176 8.66667V17.3333C30.5176 17.6207 30.4034 17.8962 30.2003 18.0994C29.9971 18.3025 29.7216 18.4167 29.4342 18.4167C29.1469 18.4167 28.8714 18.3025 28.6682 18.0994C28.465 17.8962 28.3509 17.6207 28.3509 17.3333V8.66667C28.3509 8.37935 28.465 8.1038 28.6682 7.90064C28.8714 7.69747 29.1469 7.58333 29.4342 7.58333ZM7.76758 9.75C8.0549 9.75 8.33045 14.8641 8.53361 15.0673C8.73678 15.2705 8.85091 10.546 8.85091 10.8333V15.1667C8.85091 15.454 8.73678 15.7295 8.53361 15.9327C8.33045 16.1359 8.0549 16.25 7.76758 16.25C7.48026 16.25 7.20471 16.1359 7.00155 15.9327C6.79838 15.7295 6.68425 15.454 6.68425 15.1667V10.8333C6.68425 10.546 6.79838 10.2705 7.00155 10.0673C7.20471 9.86414 7.48026 9.75 7.76758 9.75ZM33.7676 9.75C34.0549 9.75 34.3304 14.8641 34.5336 15.0673C34.7368 15.2705 34.8509 10.546 34.8509 10.8333V15.1667C34.8509 15.454 34.7368 15.7295 34.5336 15.9327C34.3304 16.1359 34.0549 16.25 33.7676 16.25C33.4803 16.25 33.2047 16.1359 33.0015 15.9327C32.7984 15.7295 32.6842 15.454 32.6842 15.1667V10.8333C32.6842 10.546 32.7984 10.2705 33.0015 10.0673C33.2047 9.86414 33.4803 9.75 33.7676 9.75Z" fill="white"/>
<path d="M51.925 19L49.015 10.93H51.22L53.635 17.875H52.585L55.105 10.93H57.085L59.53 17.875H58.48L60.97 10.93H63.04L60.115 19H57.85L55.705 13.045H56.395L54.175 19H51.925ZM68.8142 19V17.425L68.6642 17.08V14.26C68.6642 13.76 68.5092 13.37 68.1992 13.09C67.8992 12.81 67.4342 12.67 66.8042 12.67C66.3742 12.67 65.9492 12.74 65.5292 12.88C65.1192 13.01 64.7692 13.19 64.4792 13.42L63.6392 11.785C64.0792 11.475 64.6092 11.235 65.2292 11.065C65.8492 10.895 66.4792 10.81 67.1192 10.81C68.3492 10.81 69.3042 11.1 69.9842 11.68C70.6642 12.26 71.0042 13.165 71.0042 14.395V19H68.8142ZM66.3542 19.12C65.7242 19.12 65.1842 19.015 64.7342 18.805C64.2842 18.585 63.9392 18.29 63.6992 17.92C63.4592 17.55 63.3392 17.135 63.3392 16.675C63.3392 16.195 63.4542 15.775 63.6842 15.415C63.9242 15.055 64.2992 14.775 64.8092 14.575C65.3192 14.365 65.9842 14.26 66.8042 14.26H68.9492V15.625H67.0592C66.5092 15.625 66.1292 15.715 65.9192 15.895C65.7192 16.075 65.6192 16.3 65.6192 16.57C65.6192 16.87 65.7342 17.11 65.9642 17.29C66.2042 17.46 66.5292 17.545 66.9392 17.545C67.3292 17.545 67.6792 17.455 67.9892 17.275C68.2992 17.085 68.5242 16.81 68.6642 16.45L69.0242 17.53C68.8542 18.05 68.5442 18.445 68.0942 18.715C67.6442 18.985 67.0642 19.12 66.3542 19.12ZM75.1655 19L71.7755 10.93H74.1905L77.0105 17.875H75.8105L78.7355 10.93H80.9855L77.5805 19H75.1655ZM85.7256 19.12C84.8056 19.12 83.9956 18.94 83.2956 18.58C82.6056 18.22 82.0706 17.73 81.6906 17.11C81.3106 16.48 81.1206 15.765 81.1206 14.965C81.1206 14.155 81.3056 13.44 81.6756 12.82C82.0556 12.19 82.5706 11.7 83.2206 11.35C83.8706 10.99 84.6056 10.81 85.4256 10.81C86.2156 10.81 86.9256 10.98 87.5556 11.32C88.1956 11.65 88.7006 12.13 89.0706 12.76C89.4406 13.38 89.6256 14.125 89.6256 14.995C89.6256 15.085 89.6206 15.19 89.6106 15.31C89.6006 15.42 89.5906 15.525 89.5806 15.625H83.0256V14.26H88.3506L87.4506 14.665C87.4506 14.245 87.3656 13.88 87.1956 13.57C87.0256 13.26 86.7906 13.02 86.4906 12.85C86.1906 12.67 85.8406 12.58 85.4406 12.58C85.0406 12.58 84.6856 12.67 84.3756 12.85C84.0756 13.02 83.8406 13.265 83.6706 13.585C83.5006 13.895 83.4156 14.265 83.4156 14.695V15.055C83.4156 15.495 83.5106 15.885 83.7006 16.225C83.9006 16.555 84.1756 16.81 84.5256 16.99C84.8856 17.16 85.3056 17.245 85.7856 17.245C86.2156 17.245 86.5906 17.18 86.9106 17.05C87.2406 16.92 87.5406 16.725 87.8106 16.465L89.0556 17.815C88.6856 18.235 88.2206 18.56 87.6606 18.79C87.1006 19.01 86.4556 19.12 85.7256 19.12ZM93.8985 19.12C93.2085 19.12 92.5435 19.04 91.9035 18.88C91.2735 18.71 90.7735 18.5 90.4035 18.25L91.1835 16.57C91.5535 16.8 91.9885 16.99 92.4885 17.14C92.9985 17.28 93.4985 17.35 93.9885 17.35C94.5285 17.35 94.9085 17.285 95.1285 17.155C95.3585 17.025 95.4735 16.845 95.4735 16.615C95.4735 16.425 95.3835 16.285 95.2035 16.195C95.0335 16.095 94.8035 16.02 94.5135 15.97C94.2235 15.92 93.9035 15.87 93.5535 15.82C93.2135 15.77 92.8685 15.705 92.5185 15.625C92.1685 15.535 91.8485 15.405 91.5585 15.235C91.2685 15.065 91.0335 14.835 90.8535 14.545C90.6835 14.255 90.5985 13.88 90.5985 13.42C90.5985 12.91 90.7435 12.46 91.0335 12.07C91.3335 11.68 91.7635 11.375 92.3235 11.155C92.8835 10.925 93.5535 10.81 94.3335 10.81C94.8835 10.81 95.4435 10.87 96.0135 10.99C96.5835 11.11 97.0585 11.285 97.4385 11.515L96.6585 13.18C96.2685 12.95 95.8735 12.795 95.4735 12.715C95.0835 12.625 94.7035 12.58 94.3335 12.58C93.8135 12.58 93.4335 12.65 93.1935 12.79C92.9535 12.93 92.8335 13.11 92.8335 13.33C92.8335 13.53 92.9185 13.68 93.0885 13.78C93.2685 13.88 93.5035 13.96 93.7935 14.02C94.0835 14.08 94.3985 14.135 94.7385 14.185C95.0885 14.225 95.4385 14.29 95.7885 14.38C96.1385 14.47 96.4535 14.6 96.7335 14.77C97.0235 14.93 97.2585 15.155 97.4385 15.445C97.6185 15.725 97.7085 16.095 97.7085 16.555C97.7085 17.055 97.5585 17.5 97.2585 17.89C96.9585 18.27 96.5235 18.57 95.9535 18.79C95.3935 19.01 94.7085 19.12 93.8985 19.12Z" fill="white"/>
</svg>
